<svg width="256" height="256" viewBox="0 0 256 256" xmlns="http://www.w3.org/2000/svg" role="img" aria-labelledby="title desc">
  <title id="title">CourseWeaver logo light</title>
  <desc id="desc">Layered book and weave emblem for light backgrounds.</desc>
  <defs>
    <linearGradient id="bg" x1="0" y1="0" x2="1" y2="1">
      <stop offset="0%" stop-color="#D9EAFE"/>
      <stop offset="100%" stop-color="#F2F9FF"/>
    </linearGradient>
    <linearGradient id="a" x1="0" y1="0" x2="1" y2="1">
      <stop offset="0%" stop-color="#2E7BE5"/>
      <stop offset="100%" stop-color="#1959B8"/>
    </linearGradient>
    <linearGradient id="b" x1="0" y1="0" x2="1" y2="1">
      <stop offset="0%" stop-color="#1CA488"/>
      <stop offset="100%" stop-color="#0E7C66"/>
    </linearGradient>
  </defs>
  <rect x="20" y="20" width="216" height="216" rx="50" fill="url(#bg)" stroke="#A8C6EB" stroke-width="2"/>
  <path d="M56 84L128 52L200 84L128 116L56 84Z" fill="none" stroke="url(#a)" stroke-width="10" stroke-linejoin="round"/>
  <path d="M56 126L128 158L200 126" fill="none" stroke="url(#a)" stroke-width="10" stroke-linecap="round" stroke-linejoin="round"/>
  <path d="M56 168L128 200L200 168" fill="none" stroke="url(#b)" stroke-width="10" stroke-linecap="round" stroke-linejoin="round"/>
  <path d="M82 94C100 108 116 108 134 94C152 80 168 80 186 94" fill="none" stroke="#366399" stroke-opacity="0.95" stroke-width="6" stroke-linecap="round"/>
  <path d="M70 132C90 148 108 148 128 132C148 116 166 116 186 132" fill="none" stroke="#2F5F95" stroke-opacity="0.9" stroke-width="6" stroke-linecap="round"/>
  <path d="M70 172C90 188 108 188 128 172C148 156 166 156 186 172" fill="none" stroke="#1D7A69" stroke-opacity="0.9" stroke-width="6" stroke-linecap="round"/>
  <circle cx="128" cy="116" r="9" fill="#2E7BE5"/>
</svg>
